<?xml version="1.0" encoding="UTF-8"?>
<svg version="1.1" xmlns="http://www.w3.org/2000/svg" width="533" height="533">
<path d="M0 0 C175.89 0 351.78 0 533 0 C533 175.89 533 351.78 533 533 C357.11 533 181.22 533 0 533 C0 357.11 0 181.22 0 0 Z " fill="#FDFDFD" transform="translate(0,0)"/>
<path d="M0 0 C2.20064555 -0.00407055 4.40128904 -0.00941513 6.60192871 -0.01593018 C12.55016553 -0.02955118 18.49824541 -0.02432688 24.4464848 -0.01479292 C30.68600194 -0.00717021 36.92550611 -0.01424908 43.1650238 -0.01895142 C54.30974161 -0.02474949 65.45439796 -0.01545789 76.59910362 -0.0001734 C86.6850821 0.01323123 96.77095698 0.01089647 106.85693359 -0.00292969 C118.59751083 -0.01901671 130.33802769 -0.02494327 142.07861465 -0.0160929 C148.28331134 -0.01142669 154.48793681 -0.01076266 160.69262886 -0.02070236 C166.52614794 -0.02939566 172.35947215 -0.02330685 178.19297028 -0.00601959 C180.32822026 -0.00206757 182.46348677 -0.00316667 184.59873009 -0.00980759 C205.08819203 -0.06763692 205.08819203 -0.06763692 214.15795898 3.38818359 C215.81504883 3.93539062 215.81504883 3.93539062 217.50561523 4.49365234 C231.46947158 10.059103 241.05062722 19.60410428 247.79858398 32.87255859 C252.02115394 43.79299812 252.57910843 54.18027876 252.49853516 65.72314453 C252.49768726 67.43917831 252.49816719 69.15521318 252.49986267 70.87124634 C252.50071772 75.49445247 252.48317203 80.11742153 252.4621408 84.74057293 C252.44329162 89.58519451 252.4416171 94.4298225 252.43806458 99.2744751 C252.4287682 108.43269659 252.40418723 117.59080969 252.37401611 126.74898362 C252.34039686 137.18193805 252.32396722 147.61489787 252.3089298 158.04789305 C252.27763537 179.49471689 252.22492203 200.94144339 252.15795898 222.38818359 C252.77509766 222.68297607 253.39223633 222.97776855 254.02807617 223.28149414 C266.40747316 229.71384244 273.04877045 244.85192903 277.24780273 257.39208984 C282.60418164 275.0244616 278.77176889 293.505849 270.56079102 309.60424805 C262.72012452 323.94473897 249.92014457 333.82298504 234.73217773 339.63427734 C219.99552871 343.95017 202.27698252 345.14846959 188.15795898 338.38818359 C187.30588867 338.02595703 186.45381836 337.66373047 185.57592773 337.29052734 C178.87719961 334.25500538 171.40986282 329.79995378 166.98373318 323.79514313 C164.17290185 321.62908888 161.22142448 321.97643411 157.81666565 322.00964355 C156.68620981 322.00284836 156.68620981 322.00284836 155.53291649 321.99591589 C152.99963486 321.98425987 150.46687804 321.9939519 147.93359375 322.00341797 C146.12012897 321.99931406 144.30666682 321.99385426 142.49320984 321.98713684 C138.58246781 321.9753927 134.67186698 321.97293452 130.76111031 321.97749329 C124.56999119 321.98429553 118.37905804 321.96844505 112.18797302 321.94909668 C99.0321451 321.91119108 85.87633312 321.89844813 72.72045898 321.88818359 C58.54863784 321.87710734 44.37690228 321.8616398 30.20513958 321.81747103 C24.05917846 321.79917023 17.91342938 321.79520326 11.76744759 321.80240631 C7.92860056 321.80393572 4.08985802 321.79309585 0.25103951 321.77902794 C-1.51934412 321.77504827 -3.28974799 321.77611069 -5.06012344 321.78280067 C-23.23710812 321.84616845 -40.30959805 318.68453576 -53.88891602 305.53271484 C-69.99234625 287.85114845 -71.14795321 268.05935242 -71.11669922 245.4140625 C-71.12105376 243.31828125 -71.12623936 241.22250158 -71.13218689 239.12672424 C-71.1455078 233.46755835 -71.14616333 227.80845953 -71.14362359 222.14928102 C-71.14254925 217.41051623 -71.147449 212.67176475 -71.15222901 207.93300283 C-71.16330015 196.74650335 -71.16377499 185.56003746 -71.15771484 174.37353516 C-71.15167551 162.8645123 -71.16399063 151.35561171 -71.18528491 139.84660971 C-71.20294318 129.93535927 -71.20889565 120.0241476 -71.20564717 110.11288202 C-71.20384103 104.20652396 -71.20640345 98.30025315 -71.22036171 92.39390945 C-71.2330045 86.83697394 -71.23093526 81.28022807 -71.21795082 75.72329521 C-71.21559955 73.69453681 -71.21826713 71.66576478 -71.22657394 69.63702202 C-71.30423467 49.18105291 -69.39133203 32.01812847 -54.84204102 16.38818359 C-38.99773716 1.46024806 -20.63000118 -0.06422889 0 0 Z " fill="#0468C2" transform="translate(175.842041015625,102.61181640625)"/>
<path d="M0 0 C1.19230225 0.01208496 2.38460449 0.02416992 3.61303711 0.03662109 C17.78246796 0.35704268 29.69345571 3.93884168 40.375 13.6875 C55.02237853 29.37124965 54.95715155 51.77739101 54.75 71.875 C54.73993937 73.59374472 54.73081903 75.31249522 54.72265625 77.03125 C54.70091162 81.18764602 54.66655604 85.34375679 54.625 89.5 C53.90344727 89.74959473 53.18189453 89.99918945 52.43847656 90.25634766 C34.23007755 96.68981974 21.3306009 106.76347582 12.5625 124.25 C11.90373075 125.66069778 11.25235458 127.07505391 10.625 128.5 C10.295 128.5 9.965 128.5 9.625 128.5 C9.61691315 127.6806044 9.60882629 126.8612088 9.60049438 126.01698303 C9.52229067 118.2642429 9.43492398 110.51168403 9.33747292 102.75916386 C9.28769972 98.77429187 9.24136936 94.78944399 9.203125 90.80444336 C9.16603075 86.95286075 9.11960825 83.1014896 9.06693649 79.25008965 C9.0485199 77.78666359 9.03336588 76.32319243 9.02165604 74.85969734 C9.14188932 59.74021853 9.14188932 59.74021853 2.625 46.5 C-4.56638549 39.86179801 -11.73264867 39.90254907 -21.02734375 40.1171875 C-26.19895654 40.42236864 -29.69310651 41.80785054 -33.375 45.5 C-34.138125 46.221875 -34.90125 46.94375 -35.6875 47.6875 C-41.62768555 57.58780926 -40.84872021 68.70440755 -40.88671875 79.8515625 C-40.90358732 81.72058272 -40.92174046 83.58959174 -40.94111633 85.45858765 C-40.98838606 90.347641 -41.01834384 95.23664895 -41.04455566 100.12585449 C-41.07975066 106.00820753 -41.13669722 111.89038631 -41.18994904 117.77259827 C-41.26819259 126.68170928 -41.31900245 135.59059641 -41.375 144.5 C-56.225 144.5 -71.075 144.5 -86.375 144.5 C-86.375 97.97 -86.375 51.44 -86.375 3.5 C-71.525 3.5 -56.675 3.5 -41.375 3.5 C-40.88 10.43 -40.88 10.43 -40.375 17.5 C-39.59125 16.46875 -38.8075 15.4375 -38 14.375 C-28.38500515 3.22881159 -14.12723563 -0.22883754 0 0 Z " fill="#FCFCFC" transform="translate(317.375,224.5)"/>
<path d="M0 0 C13.30307025 9.67169161 22.05477981 22.43005613 26.07421875 38.48046875 C29.05597123 57.43784919 24.04227112 74.08097632 12.84765625 89.45703125 C4.13817695 100.17481402 -9.86537306 108.07093336 -23.5 110.1875 C-42.50736802 111.74919135 -58.03184564 107.34533836 -72.8125 95.0625 C-84.1972979 84.18410991 -90.9018307 69.90931761 -91.703125 54.20703125 C-92.03810544 36.34983483 -87.54614804 21.67183112 -74.87890625 8.46875 C-54.28096849 -11.28362381 -24.54896263 -15.53848197 0 0 Z " fill="#FAFBFC" transform="translate(421.5,327.8125)"/>
<path d="M0 0 C15.18 0 30.36 0 46 0 C46 46.86 46 93.72 46 142 C30.82 142 15.64 142 0 142 C0 95.14 0 48.28 0 0 Z " fill="#F9FAFC" transform="translate(162,227)"/>
<path d="M0 0 C1.27287872 -0.00855011 1.27287872 -0.00855011 2.57147217 -0.01727295 C4.37038932 -0.02672898 6.16932384 -0.03325932 7.96826172 -0.03710938 C10.7096217 -0.04678761 13.4502232 -0.07779341 16.19140625 -0.109375 C17.94009972 -0.1159079 19.68879855 -0.12115724 21.4375 -0.125 C22.66125336 -0.1435202 22.66125336 -0.1435202 23.909729 -0.16241455 C28.81724499 -0.14338376 32.30692758 0.34814697 36.484375 3.203125 C40.49563265 7.63410997 39.93523347 12.88792874 39.91796875 18.54296875 C39.9232106 19.54268204 39.92845245 20.54239532 39.93385315 21.57240295 C39.94026566 23.68294345 39.93894635 25.79351972 39.93041992 27.90405273 C39.92191325 31.12613843 39.9506777 34.34644884 39.98242188 37.56835938 C39.98403416 39.6223953 39.98345584 41.67643436 39.98046875 43.73046875 C39.99170273 44.69000961 40.00293671 45.64955048 40.01451111 46.63816833 C39.95398227 52.47340144 39.31557064 55.72957858 35.484375 60.203125 C32.07516646 62.78942113 28.63932095 62.36293061 24.484375 62.203125 C24.54625 63.42 24.608125 64.636875 24.671875 65.890625 C24.66495281 69.8016636 24.03177518 72.10985335 21.484375 75.203125 C18.69150713 76.88521486 16.58915664 77.45855152 13.34594727 77.49365234 C12.54153702 77.50641205 11.73712677 77.51917175 10.90834045 77.53231812 C10.04784592 77.53454376 9.18735138 77.53676941 8.30078125 77.5390625 C7.40826157 77.5457193 6.51574188 77.5523761 5.59617615 77.55923462 C3.71086688 77.56934749 1.82552191 77.57405206 -0.05981445 77.57373047 C-2.93956589 77.57810441 -5.81778515 77.61443966 -8.69726562 77.65234375 C-10.53124477 77.6582121 -12.36523118 77.66218137 -14.19921875 77.6640625 C-15.05768906 77.67843353 -15.91615936 77.69280457 -16.80064392 77.70761108 C-20.79791273 77.67715371 -22.98261018 77.52373476 -26.47290039 75.42431641 C-29.63654794 71.98427034 -30.75703474 69.29832197 -30.83789062 64.63745117 C-30.86671326 63.29036324 -30.86671326 63.29036324 -30.89611816 61.9160614 C-30.90461792 60.95247208 -30.91311768 59.98888275 -30.921875 58.99609375 C-30.93327515 57.99733719 -30.94467529 56.99858063 -30.9564209 55.96955872 C-30.97529928 53.85727156 -30.98838031 51.74492579 -30.99609375 49.63256836 C-31.01549505 46.41219527 -31.07754534 43.19438274 -31.140625 39.97460938 C-31.15368746 37.91928595 -31.16418747 35.86394431 -31.171875 33.80859375 C-31.20891541 32.3723188 -31.20891541 32.3723188 -31.2467041 30.9070282 C-31.20737052 24.95990262 -30.19122623 21.76132101 -26.05453491 17.42828369 C-23.87654962 15.69434359 -22.38516775 15.47453713 -19.640625 15.765625 C-18.46886719 15.86037109 -18.46886719 15.86037109 -17.2734375 15.95703125 C-16.40332031 16.07884766 -16.40332031 16.07884766 -15.515625 16.203125 C-15.60263672 15.20732422 -15.60263672 15.20732422 -15.69140625 14.19140625 C-16.06347146 6.90955859 -16.06347146 6.90955859 -13.140625 3.140625 C-8.73444249 -0.11155733 -5.32700933 0.02747693 0 0 Z " fill="#0A69C1" transform="translate(382.515625,340.796875)"/>
<path d="M0 0 C5.61138177 3.81496695 10.22711407 8.30735563 12 15 C13.00422122 23.15929744 12.48897685 30.94761277 8 38 C2.70621359 44.09461461 -3.10419496 48.26170599 -11.18359375 49.2734375 C-18.88647672 49.62053448 -25.3502303 47.66335188 -31.3125 42.75 C-34.7868274 39.4902227 -36.90981164 36.26398426 -39 32 C-39.33 31.34 -39.66 30.68 -40 30 C-41.23958258 13.37740078 -41.23958258 13.37740078 -36 7 C-25.58913254 -4.24946386 -13.83633454 -7.55316813 0 0 Z " fill="#FAFBFC" transform="translate(199,160)"/>
<path d="M0 0 C0.78769775 -0.00428513 1.57539551 -0.00857025 2.38696289 -0.01298523 C4.05125976 -0.01872454 5.71558171 -0.01923172 7.37988281 -0.01489258 C9.92816834 -0.01173033 12.47529533 -0.03520324 15.0234375 -0.06054688 C16.64062353 -0.06281967 18.25781269 -0.06352346 19.875 -0.0625 C20.63756104 -0.07170975 21.40012207 -0.08091949 22.18579102 -0.09040833 C27.47073883 -0.04409839 27.47073883 -0.04409839 29.63908386 1.55804443 C31.25267995 3.72381642 31.31206192 4.87461112 31.30981445 7.55688477 C31.31915764 8.8382003 31.31915764 8.8382003 31.32868958 10.145401 C31.31947983 11.06421555 31.31027008 11.98303009 31.30078125 12.9296875 C31.30152901 14.34785011 31.30152901 14.34785011 31.30229187 15.79466248 C31.29995161 17.79273583 31.29022595 19.79081213 31.27368164 21.78881836 C31.25006439 24.85492157 31.2531241 27.92015694 31.25976562 30.98632812 C31.25418979 32.92578646 31.24708051 34.86524111 31.23828125 36.8046875 C31.23964836 38.18594566 31.23964836 38.18594566 31.24104309 39.59510803 C31.23151108 40.44616623 31.22197906 41.29722443 31.2121582 42.17407227 C31.20755081 42.92447281 31.20294342 43.67487335 31.19819641 44.44801331 C30.9375 46.30078125 30.9375 46.30078125 28.9375 48.30078125 C26.09209858 48.50068352 23.34612216 48.58055101 20.5 48.56640625 C19.66412354 48.5683197 18.82824707 48.57023315 17.96704102 48.57220459 C16.19840189 48.57356661 14.42975277 48.56986901 12.66113281 48.56152344 C9.94834006 48.550824 7.23620956 48.56141801 4.5234375 48.57421875 C2.8072902 48.57289716 1.09114331 48.57033477 -0.625 48.56640625 C-1.43960693 48.57045471 -2.25421387 48.57450317 -3.09350586 48.57867432 C-8.83258072 48.53070053 -8.83258072 48.53070053 -11.0625 46.30078125 C-11.32319641 44.40332031 -11.32319641 44.40332031 -11.3371582 42.06640625 C-11.34669022 41.19209961 -11.35622223 40.31779297 -11.36604309 39.41699219 C-11.36513168 38.47114258 -11.36422028 37.52529297 -11.36328125 36.55078125 C-11.36756638 35.58172852 -11.3718515 34.61267578 -11.37626648 33.61425781 C-11.38201558 31.563159 -11.38250579 29.51203979 -11.37817383 27.4609375 C-11.37501272 24.31345053 -11.39846993 21.16690198 -11.42382812 18.01953125 C-11.42610085 16.02994911 -11.42680474 14.04036443 -11.42578125 12.05078125 C-11.434991 11.10493164 -11.44420074 10.15908203 -11.45368958 9.18457031 C-11.44746078 8.31026367 -11.44123199 7.43595703 -11.43481445 6.53515625 C-11.43544388 5.76397461 -11.4360733 4.99279297 -11.4367218 4.19824219 C-11.31322861 3.57208008 -11.18973541 2.94591797 -11.0625 2.30078125 C-7.31330161 -0.19868434 -4.34288795 -0.00519059 0 0 Z " fill="#F8FAFC" transform="translate(370.0625,362.69921875)"/>
<path d="M0 0 C1.2219104 0.00607269 1.2219104 0.00607269 2.46850586 0.01226807 C3.30438232 0.01035461 4.14025879 0.00844116 5.00146484 0.00646973 C6.77010397 0.00510771 8.53875309 0.0088053 10.30737305 0.01715088 C13.02016579 0.02785031 15.7322963 0.01725631 18.44506836 0.00445557 C20.16121566 0.00577716 21.87736255 0.00833955 23.59350586 0.01226807 C24.40811279 0.0082196 25.22271973 0.00417114 26.06201172 0 C31.80108658 0.04797379 31.80108658 0.04797379 34.03100586 2.27789307 C34.28497314 4.175354 34.28497314 4.175354 34.28979492 6.51226807 C34.29609924 7.38657471 34.30240356 8.26088135 34.30889893 9.16168213 C34.30485046 10.10753174 34.300802 11.05338135 34.29663086 12.02789307 C34.29950104 13.48147217 34.29950104 13.48147217 34.3024292 14.9644165 C34.30379165 17.01552591 34.30009104 19.06664392 34.29174805 21.11773682 C34.28104945 24.26506846 34.29164139 27.41182927 34.30444336 30.55914307 C34.30312178 32.54872767 34.30055941 34.53831191 34.29663086 36.52789307 C34.30067932 37.47374268 34.30472778 38.41959229 34.30889893 39.394104 C34.3025946 40.26841064 34.29629028 41.14271729 34.28979492 42.04351807 C34.28820374 42.81469971 34.28661255 43.58588135 34.28497314 44.38043213 C34.03100586 46.27789307 34.03100586 46.27789307 32.03100586 48.27789307 C28.90600586 48.40289307 28.90600586 48.40289307 26.03100586 48.27789307 C26.02689697 47.30440918 26.02278809 46.33092529 26.01855469 45.32794189 C25.99671801 41.70257227 25.9423837 38.07828105 25.87841797 34.45343018 C25.85527704 32.88712938 25.84085138 31.32067384 25.83544922 29.75421143 C25.82612998 27.49680604 25.78508353 25.24182086 25.73803711 22.98492432 C25.74196976 22.28889603 25.7459024 21.59286774 25.74995422 20.87574768 C25.64024654 17.18789891 25.08281816 15.34931901 22.90014648 12.34039307 C19.46467537 9.87078279 17.61639886 9.6283779 13.41772461 9.57086182 C12.17055664 9.54185791 10.92338867 9.512854 9.63842773 9.48297119 C8.34485352 9.47717041 7.0512793 9.47136963 5.71850586 9.46539307 C4.4055957 9.44025635 3.09268555 9.41511963 1.73999023 9.38922119 C-1.49663903 9.33037339 -4.73191632 9.2940737 -7.96899414 9.27789307 C-8.09399414 5.90289307 -8.09399414 5.90289307 -7.96899414 2.27789307 C-5.36593522 -0.32516585 -3.54620875 0.02964329 0 0 Z " fill="#EDF2F9" transform="translate(380.968994140625,347.72210693359375)"/>
<path d="M0 0 C0 3 0 3 -2.1875 5.48046875 C-3.115625 6.37378906 -4.04375 7.26710938 -5 8.1875 C-5.928125 9.08855469 -6.85625 9.98960938 -7.8125 10.91796875 C-8.534375 11.60503906 -9.25625 12.29210937 -10 13 C-10.66 12.67 -11.32 12.34 -12 12 C-10.75479583 10.55834372 -9.50362077 9.12184348 -8.25 7.6875 C-7.55390625 6.88699219 -6.8578125 6.08648437 -6.140625 5.26171875 C-4.20854665 3.22034399 -2.30056874 1.60107149 0 0 Z " fill="#196EC4" transform="translate(127,114)"/>
<path d="M0 0 C0 3 0 3 -1.53125 4.60546875 C-2.1809375 5.12753906 -2.830625 5.64960938 -3.5 6.1875 C-4.1496875 6.71730469 -4.799375 7.24710937 -5.46875 7.79296875 C-5.9740625 8.19128906 -6.479375 8.58960938 -7 9 C-6.19095897 4.20719998 -3.74015409 2.86479887 0 0 Z " fill="#1A6FC4" transform="translate(348,325)"/>
</svg>
